<svg width="113" height="72" viewBox="0 0 113 72" fill="none" xmlns="http://www.w3.org/2000/svg">
<path d="M25.5114 69L26.7188 61.7273H27.3544L26.8857 64.5859H26.9425C27.0395 64.4226 27.1686 64.2545 27.3295 64.0817C27.4929 63.9089 27.6941 63.7644 27.9332 63.6484C28.1723 63.5301 28.4588 63.4709 28.7926 63.4709C29.2401 63.4709 29.6129 63.5893 29.9112 63.826C30.2119 64.0604 30.4214 64.3894 30.5398 64.8132C30.6581 65.2346 30.6712 65.7259 30.5788 66.2869C30.4841 66.8504 30.3078 67.344 30.0497 67.7678C29.7917 68.1915 29.4744 68.5218 29.098 68.7585C28.7216 68.9953 28.3108 69.1136 27.8658 69.1136C27.5343 69.1136 27.2668 69.0545 27.0632 68.9361C26.862 68.8177 26.7081 68.6721 26.6016 68.4993C26.4974 68.3241 26.4216 68.1536 26.3743 67.9879H26.2962L26.1257 69H25.5114ZM26.5909 66.2763C26.5199 66.7166 26.5199 67.1072 26.5909 67.4482C26.6643 67.7867 26.8075 68.053 27.0206 68.2472C27.236 68.4389 27.5201 68.5348 27.8729 68.5348C28.2351 68.5348 28.5582 68.4354 28.8423 68.2365C29.1288 68.0353 29.3655 67.7642 29.5526 67.4233C29.742 67.0824 29.8722 66.7 29.9432 66.2763C30.0118 65.8572 30.0107 65.4796 29.9396 65.1435C29.8686 64.8073 29.7254 64.541 29.5099 64.3445C29.2945 64.1456 29.0045 64.0462 28.6399 64.0462C28.2848 64.0462 27.9652 64.142 27.6811 64.3338C27.3994 64.5232 27.165 64.786 26.978 65.1222C26.791 65.456 26.6619 65.8407 26.5909 66.2763ZM31.424 71.0455C31.2985 71.0455 31.1825 71.0336 31.076 71.0099C30.9718 70.9863 30.8902 70.9602 30.831 70.9318L31.0973 70.3743C31.2962 70.4429 31.4785 70.4643 31.6442 70.4382C31.8123 70.4145 31.9721 70.334 32.1236 70.1967C32.2751 70.0594 32.4242 69.8546 32.571 69.5824L32.8693 69.0284L31.7898 63.5455H32.4467L33.299 68.1761H33.3452L35.7351 63.5455H36.4489L33.093 69.8558C32.9486 70.1281 32.7888 70.3518 32.6136 70.527C32.4408 70.7022 32.2538 70.8324 32.0526 70.9176C31.8537 71.0028 31.6442 71.0455 31.424 71.0455ZM41.8688 69H39.7203L40.9277 61.7273H43.1685C43.8598 61.7273 44.4303 61.8741 44.8801 62.1676C45.33 62.4612 45.6425 62.8814 45.8176 63.4283C45.9928 63.9728 46.0165 64.6238 45.8887 65.3814C45.7632 66.139 45.5229 66.7876 45.1678 67.3274C44.8127 67.8672 44.3558 68.2815 43.7971 68.5703C43.2407 68.8568 42.598 69 41.8688 69ZM40.4838 68.4034H41.9043C42.5246 68.4034 43.0667 68.2779 43.5307 68.027C43.9947 67.776 44.3723 67.4197 44.6635 66.9581C44.9547 66.4941 45.1524 65.9437 45.2566 65.3068C45.3607 64.6818 45.3489 64.1468 45.2211 63.7017C45.0956 63.2566 44.8529 62.9157 44.4931 62.679C44.1356 62.4422 43.6609 62.3239 43.0691 62.3239H41.4888L40.4838 68.4034ZM46.5669 69H45.8709L49.7239 61.7273H50.4341L51.8723 69H51.1763L49.9654 62.5902H49.9192L46.5669 69ZM47.5328 66.2124H51.1408L51.0414 66.8089H47.4334L47.5328 66.2124ZM52.9368 62.3239L53.0362 61.7273H58.3097L58.2102 62.3239H55.9055L54.7976 69H54.1335L55.2415 62.3239H52.9368ZM57.7583 69H57.0623L60.9153 61.7273H61.6255L63.0637 69H62.3677L61.1568 62.5902H61.1106L57.7583 69ZM58.7243 66.2124H62.3322L62.2328 66.8089H58.6248L58.7243 66.2124ZM70.4847 64H69.8242C69.8171 63.7514 69.7674 63.5218 69.6751 63.3111C69.5827 63.098 69.4537 62.9122 69.288 62.7536C69.1223 62.5949 68.9246 62.4718 68.695 62.3842C68.4677 62.2966 68.2132 62.2528 67.9315 62.2528C67.4674 62.2528 67.0236 62.3748 66.5998 62.6186C66.176 62.8601 65.8114 63.2152 65.506 63.6839C65.2006 64.1527 64.9923 64.7256 64.881 65.4027C64.7698 66.0703 64.7875 66.6326 64.9343 67.0895C65.0811 67.544 65.3214 67.8885 65.6552 68.1229C65.9914 68.3572 66.3855 68.4744 66.8377 68.4744C67.1265 68.4744 67.4035 68.4306 67.6687 68.343C67.9338 68.2554 68.1777 68.1335 68.4002 67.9773C68.6228 67.8187 68.8181 67.6328 68.9862 67.4197C69.1542 67.2067 69.2844 66.9759 69.3768 66.7273H70.0444C69.9284 67.0611 69.7662 67.3724 69.5579 67.6612C69.3496 67.9477 69.1033 68.1986 68.8192 68.4141C68.5375 68.6295 68.2262 68.7976 67.8853 68.9183C67.5468 69.0391 67.1869 69.0994 66.8058 69.0994C66.1855 69.0994 65.6611 68.9444 65.2326 68.6342C64.8065 68.3241 64.5034 67.8873 64.3235 67.3239C64.146 66.758 64.1211 66.0916 64.2489 65.3246C64.3744 64.5717 64.6147 63.9183 64.9698 63.3643C65.3273 62.8104 65.7653 62.383 66.2837 62.0824C66.8022 61.7794 67.3656 61.6278 67.9741 61.6278C68.3623 61.6278 68.7103 61.6882 69.0181 61.8089C69.3259 61.9273 69.5875 62.0954 69.8029 62.3132C70.0207 62.5286 70.1876 62.7796 70.3036 63.0661C70.4196 63.3525 70.48 63.6638 70.4847 64ZM77.7832 65.4027C77.6577 66.1532 77.4163 66.8054 77.0588 67.3594C76.7013 67.9134 76.2645 68.3419 75.7484 68.6449C75.2323 68.9479 74.6712 69.0994 74.0652 69.0994C73.4425 69.0994 72.917 68.9444 72.4885 68.6342C72.0623 68.3217 71.7605 67.8838 71.5829 67.3203C71.4054 66.7545 71.3793 66.0893 71.5048 65.3246C71.6303 64.5741 71.8717 63.9219 72.2292 63.3679C72.5867 62.8139 73.0247 62.3854 73.5431 62.0824C74.0616 61.7794 74.6251 61.6278 75.2335 61.6278C75.849 61.6278 76.3699 61.7829 76.796 62.093C77.2221 62.4032 77.5252 62.8411 77.7051 63.407C77.885 63.9704 77.911 64.6357 77.7832 65.4027ZM77.1475 65.3246C77.2565 64.6759 77.2422 64.1231 77.1049 63.6662C76.97 63.2093 76.738 62.8601 76.4089 62.6186C76.0798 62.3748 75.6809 62.2528 75.2122 62.2528C74.7269 62.2528 74.2711 62.3783 73.845 62.6293C73.4189 62.8778 73.0555 63.2377 72.7548 63.7088C72.4541 64.1776 72.2482 64.7422 72.1369 65.4027C72.0304 66.049 72.0446 66.6018 72.1795 67.0611C72.3145 67.518 72.5465 67.8684 72.8755 68.1122C73.207 68.3537 73.6083 68.4744 74.0794 68.4744C74.5671 68.4744 75.024 68.349 75.4501 68.098C75.8762 67.8471 76.2385 67.4872 76.5368 67.0185C76.8374 66.5473 77.041 65.9827 77.1475 65.3246ZM80 61.7273H80.767L82.358 68.0625H82.4254L86.108 61.7273H86.875L85.6676 69H85.0426L86.0227 63.13H85.9659L82.532 69H81.9283L80.4545 63.13H80.3977L79.4176 69H78.7926L80 61.7273ZM91.0813 62.3239L91.1808 61.7273H96.4542L96.3548 62.3239H94.0501L92.9421 69H92.2781L93.386 62.3239H91.0813ZM98.0105 69.1136C97.5015 69.1136 97.0813 68.9953 96.7498 68.7585C96.4184 68.5194 96.1864 68.1892 96.0538 67.7678C95.9212 67.344 95.9011 66.8563 95.9934 66.3047C96.0858 65.7554 96.2681 65.2678 96.5403 64.8416C96.8126 64.4131 97.1487 64.0781 97.5488 63.8366C97.9489 63.5928 98.3833 63.4709 98.8521 63.4709C99.148 63.4709 99.425 63.5253 99.6831 63.6342C99.9411 63.7408 100.16 63.9053 100.34 64.1278C100.522 64.348 100.649 64.6262 100.72 64.9624C100.791 65.2962 100.789 65.6915 100.713 66.1484L100.663 66.4609H96.4018L96.4906 65.9034H100.109C100.168 65.553 100.152 65.2382 100.059 64.9588C99.9672 64.6795 99.8097 64.4581 99.5872 64.2947C99.367 64.129 99.0936 64.0462 98.7669 64.0462C98.4331 64.0462 98.117 64.1397 97.8187 64.3267C97.5228 64.5137 97.2718 64.7576 97.0659 65.0582C96.8623 65.3565 96.7309 65.675 96.6717 66.0135L96.6007 66.4325C96.5249 66.8942 96.5344 67.2812 96.6291 67.5938C96.7238 67.9039 96.8954 68.1383 97.144 68.2969C97.3926 68.4555 97.711 68.5348 98.0993 68.5348C98.3597 68.5348 98.5952 68.4946 98.8059 68.4141C99.0166 68.3336 99.2001 68.2259 99.3564 68.0909C99.5126 67.9536 99.6381 67.8033 99.7328 67.6399L100.297 67.8352C100.177 68.0649 100.006 68.2768 99.786 68.4709C99.5682 68.665 99.309 68.8213 99.0083 68.9396C98.71 69.0556 98.3774 69.1136 98.0105 69.1136ZM103.746 69.1136C103.254 69.1136 102.848 68.9917 102.528 68.7479C102.209 68.504 101.985 68.1702 101.857 67.7464C101.732 67.3203 101.714 66.8374 101.804 66.2976C101.894 65.7483 102.075 65.2618 102.347 64.8381C102.62 64.4119 102.956 64.0781 103.356 63.8366C103.758 63.5928 104.197 63.4709 104.673 63.4709C105.04 63.4709 105.36 63.5419 105.632 63.6839C105.904 63.8236 106.115 64.0213 106.264 64.277C106.413 64.5303 106.484 64.8262 106.477 65.1648H105.838C105.821 64.8499 105.707 64.5848 105.494 64.3693C105.283 64.1539 104.985 64.0462 104.599 64.0462C104.246 64.0462 103.919 64.1409 103.619 64.3303C103.318 64.5173 103.063 64.7789 102.855 65.1151C102.649 65.4489 102.511 65.8359 102.44 66.2763C102.364 66.719 102.371 67.1108 102.461 67.4517C102.551 67.7902 102.712 68.0554 102.944 68.2472C103.178 68.4389 103.474 68.5348 103.832 68.5348C104.076 68.5348 104.305 68.4898 104.521 68.3999C104.736 68.3075 104.927 68.1773 105.092 68.0092C105.258 67.8388 105.385 67.6387 105.472 67.4091H106.112C106.005 67.7405 105.837 68.0341 105.607 68.2898C105.38 68.5455 105.108 68.7467 104.79 68.8935C104.473 69.0402 104.125 69.1136 103.746 69.1136ZM108.393 65.5909L107.828 69H107.196L108.404 61.7273H109.036L108.596 64.4013H108.652C108.823 64.1172 109.057 63.8923 109.355 63.7266C109.654 63.5585 110.01 63.4744 110.424 63.4744C110.791 63.4744 111.101 63.5502 111.355 63.7017C111.61 63.8532 111.792 64.0769 111.898 64.3729C112.007 64.6688 112.026 65.0334 111.955 65.4666L111.362 69H110.726L111.309 65.5057C111.382 65.0559 111.316 64.7019 111.11 64.4439C110.906 64.1835 110.594 64.0533 110.172 64.0533C109.883 64.0533 109.614 64.1148 109.363 64.2379C109.114 64.361 108.903 64.5386 108.73 64.7706C108.56 65.0002 108.448 65.2737 108.393 65.5909Z" fill="#0151B2" fill-opacity="0.37"/>
<path d="M76.1637 46.8555H74.1417C74.1048 46.5939 74.0294 46.3615 73.9155 46.1584C73.8016 45.9522 73.6554 45.7768 73.4769 45.6321C73.2984 45.4875 73.0922 45.3767 72.8583 45.2997C72.6275 45.2228 72.3767 45.1843 72.1058 45.1843C71.6165 45.1843 71.1902 45.3059 70.8271 45.549C70.4639 45.7891 70.1823 46.1399 69.9822 46.6016C69.7822 47.0601 69.6822 47.6172 69.6822 48.2727C69.6822 48.9467 69.7822 49.513 69.9822 49.9716C70.1854 50.4302 70.4685 50.7764 70.8317 51.0103C71.1948 51.2442 71.6149 51.3612 72.092 51.3612C72.3597 51.3612 72.6075 51.3258 72.8352 51.255C73.0661 51.1842 73.2707 51.0811 73.4492 50.9457C73.6277 50.8072 73.7755 50.6394 73.8924 50.4425C74.0124 50.2455 74.0955 50.0208 74.1417 49.7685L76.1637 49.7777C76.1114 50.2116 75.9806 50.6302 75.7713 51.0334C75.5651 51.4335 75.2866 51.792 74.9357 52.109C74.5879 52.4229 74.1725 52.6722 73.6893 52.8569C73.2092 53.0385 72.666 53.1293 72.0597 53.1293C71.2164 53.1293 70.4624 52.9384 69.7976 52.5568C69.1359 52.1752 68.6127 51.6228 68.228 50.8995C67.8464 50.1763 67.6555 49.3007 67.6555 48.2727C67.6555 47.2417 67.8494 46.3646 68.2372 45.6413C68.625 44.9181 69.1513 44.3672 69.8161 43.9886C70.4808 43.607 71.2287 43.4162 72.0597 43.4162C72.6075 43.4162 73.1153 43.4931 73.5831 43.647C74.054 43.8009 74.471 44.0256 74.8342 44.321C75.1973 44.6134 75.4928 44.9719 75.7205 45.3967C75.9513 45.8214 76.0991 46.3076 76.1637 46.8555ZM82.2355 53H80.0935L83.3573 43.5455H85.9333L89.1926 53H87.0505L84.6823 45.706H84.6084L82.2355 53ZM82.1017 49.2837H87.1613V50.8441H82.1017V49.2837ZM93.3393 53V43.5455H97.0694C97.7834 43.5455 98.3928 43.6732 98.8975 43.9286C99.4054 44.181 99.7916 44.5395 100.056 45.0043C100.324 45.4659 100.458 46.0091 100.458 46.6339C100.458 47.2617 100.323 47.8018 100.052 48.2543C99.7808 48.7036 99.3884 49.0483 98.8745 49.2884C98.3636 49.5284 97.745 49.6484 97.0186 49.6484H94.5211V48.0419H96.6955C97.0771 48.0419 97.3941 47.9896 97.6465 47.8849C97.8989 47.7803 98.0866 47.6233 98.2097 47.4141C98.3359 47.2048 98.399 46.9447 98.399 46.6339C98.399 46.32 98.3359 46.0553 98.2097 45.8398C98.0866 45.6244 97.8973 45.4613 97.6419 45.3505C97.3895 45.2366 97.071 45.1797 96.6863 45.1797H95.3382V53H93.3393ZM98.4451 48.6974L100.795 53H98.5882L96.2892 48.6974H98.4451ZM104.879 53V43.5455H111.25V45.1935H106.878V47.4464H110.922V49.0945H106.878V51.3519H111.269V53H104.879Z" fill="#0151B2"/>
<g filter="url(#filter0_d_89_79)">
<path d="M20.3209 1H5.82816L5 45.2125C5.82816 47.0125 10.0518 51.49 20.3209 55V32.05H38.1263C41.4389 27.46 34.5376 22.7125 30.6729 20.9125H20.3209V19.9V1Z" fill="#0151B2"/>
<path d="M20.3209 1H5.82816L5 45.2125C5.82816 47.0125 10.0518 51.49 20.3209 55V32.05H38.1263C41.4389 27.46 34.5376 22.7125 30.6729 20.9125H20.3209V19.9V1Z" stroke="#0151B2"/>
</g>
<path d="M53.5101 20H43V48.9479C46.153 55.0132 54.2399 55.3808 57.8893 54.8064C58.0352 45.3869 58.152 25.9964 57.4513 23.7908C56.7507 21.5852 54.5319 20.3446 53.5101 20Z" fill="#0151B2" stroke="#0151B2"/>
<path d="M16.2107 1H5V46.4896C8.36322 56.0208 16.9893 56.5984 20.8819 55.6958C21.0376 40.8937 21.1622 10.4228 20.4148 6.95697C19.6674 3.4911 17.3007 1.54154 16.2107 1Z" fill="#0151B2" stroke="#0151B2"/>
<rect x="4" width="8" height="42" fill="url(#paint0_linear_89_79)" fill-opacity="0.9"/>
<rect x="41" y="20" width="10" height="24" fill="url(#paint1_linear_89_79)" fill-opacity="0.9"/>
<rect x="12" y="20" width="18" height="7" fill="url(#paint2_linear_89_79)" fill-opacity="0.9"/>
<ellipse cx="49" cy="11.5" rx="6" ry="5.5" fill="#0151B2"/>
<ellipse cx="49" cy="11.5" rx="6" ry="5.5" fill="url(#paint3_linear_89_79)" fill-opacity="0.8"/>
<defs>
<filter id="filter0_d_89_79" x="0.498047" y="0.5" width="43.002" height="63.1992" filterUnits="userSpaceOnUse" color-interpolation-filters="sRGB">
<feFlood flood-opacity="0" result="BackgroundImageFix"/>
<feColorMatrix in="SourceAlpha" type="matrix" values="0 0 0 0 0 0 0 0 0 0 0 0 0 0 0 0 0 0 127 0" result="hardAlpha"/>
<feOffset dy="4"/>
<feGaussianBlur stdDeviation="2"/>
<feComposite in2="hardAlpha" operator="out"/>
<feColorMatrix type="matrix" values="0 0 0 0 0 0 0 0 0 0 0 0 0 0 0 0 0 0 0.25 0"/>
<feBlend mode="normal" in2="BackgroundImageFix" result="effect1_dropShadow_89_79"/>
<feBlend mode="normal" in="SourceGraphic" in2="effect1_dropShadow_89_79" result="shape"/>
</filter>
<linearGradient id="paint0_linear_89_79" x1="12" y1="17.9118" x2="3.21318" y2="40.1048" gradientUnits="userSpaceOnUse">
<stop stop-color="#82B7CE"/>
<stop offset="1" stop-color="#C38206" stop-opacity="0"/>
</linearGradient>
<linearGradient id="paint1_linear_89_79" x1="51" y1="30.2353" x2="48.4291" y2="44.4397" gradientUnits="userSpaceOnUse">
<stop stop-color="#82B7CE"/>
<stop offset="1" stop-color="#C38206" stop-opacity="0"/>
</linearGradient>
<linearGradient id="paint2_linear_89_79" x1="30" y1="22.9853" x2="29.8746" y2="27.2603" gradientUnits="userSpaceOnUse">
<stop stop-color="#0151B2"/>
<stop offset="1" stop-color="#C38206" stop-opacity="0"/>
</linearGradient>
<linearGradient id="paint3_linear_89_79" x1="49" y1="9.78125" x2="49" y2="17" gradientUnits="userSpaceOnUse">
<stop stop-color="#74ABCB"/>
<stop offset="0.046875" stop-color="#AF7D17" stop-opacity="0.53125"/>
<stop offset="1" stop-color="#AF7D17" stop-opacity="0"/>
</linearGradient>
</defs>
</svg>
