<svg width="25" height="25" viewBox="0 0 25 25" fill="none" xmlns="http://www.w3.org/2000/svg">
<path fill-rule="evenodd" clip-rule="evenodd" d="M3.0835 12.4999C3.0835 6.74679 7.74704 2.08325 13.5002 2.08325C19.2533 2.08325 23.9168 6.74679 23.9168 12.4999C23.9168 18.253 19.2533 22.9166 13.5002 22.9166C7.74704 22.9166 3.0835 18.253 3.0835 12.4999ZM13.5002 4.16659C11.29 4.16659 9.17041 5.04456 7.60761 6.60736C6.0448 8.17017 5.16683 10.2898 5.16683 12.4999C5.16683 14.7101 6.0448 16.8297 7.60761 18.3925C9.17041 19.9553 11.29 20.8333 13.5002 20.8333C15.7103 20.8333 17.8299 19.9553 19.3927 18.3925C20.9555 16.8297 21.8335 14.7101 21.8335 12.4999C21.8335 10.2898 20.9555 8.17017 19.3927 6.60736C17.8299 5.04456 15.7103 4.16659 13.5002 4.16659Z" fill="black"/>
<path fill-rule="evenodd" clip-rule="evenodd" d="M14.5417 7.29161C14.5417 7.01534 14.4319 6.75039 14.2366 6.55504C14.0412 6.35969 13.7763 6.24994 13.5 6.24994C13.2237 6.24994 12.9588 6.35969 12.7634 6.55504C12.5681 6.75039 12.4583 7.01534 12.4583 7.29161V11.4583H8.29167C8.0154 11.4583 7.75045 11.568 7.5551 11.7634C7.35975 11.9587 7.25 12.2237 7.25 12.4999C7.25 12.7762 7.35975 13.0412 7.5551 13.2365C7.75045 13.4319 8.0154 13.5416 8.29167 13.5416H12.4583V17.7083C12.4583 17.9845 12.5681 18.2495 12.7634 18.4448C12.9588 18.6402 13.2237 18.7499 13.5 18.7499C13.7763 18.7499 14.0412 18.6402 14.2366 18.4448C14.4319 18.2495 14.5417 17.9845 14.5417 17.7083V13.5416H18.7083C18.9846 13.5416 19.2496 13.4319 19.4449 13.2365C19.6403 13.0412 19.75 12.7762 19.75 12.4999C19.75 12.2237 19.6403 11.9587 19.4449 11.7634C19.2496 11.568 18.9846 11.4583 18.7083 11.4583H14.5417V7.29161Z" fill="black"/>
</svg>
