<svg width="23" height="23" viewBox="0 0 23 23" fill="none" xmlns="http://www.w3.org/2000/svg">
<path d="M11.4998 1.91669C12.7583 1.91669 14.0045 2.16457 15.1672 2.64617C16.3299 3.12778 17.3864 3.83369 18.2763 4.72358C19.1662 5.61348 19.8721 6.66993 20.3537 7.83264C20.8353 8.99534 21.0832 10.2415 21.0832 11.5C21.0832 14.0417 20.0735 16.4792 18.2763 18.2765C16.4791 20.0737 14.0415 21.0834 11.4998 21.0834C10.2413 21.0834 8.99516 20.8355 7.83245 20.3539C6.66975 19.8723 5.61329 19.1664 4.7234 18.2765C2.92617 16.4792 1.9165 14.0417 1.9165 11.5C1.9165 8.95836 2.92617 6.5208 4.7234 4.72358C6.52062 2.92636 8.95818 1.91669 11.4998 1.91669ZM8.62484 6.70835V16.2917H14.3748V14.375H10.5415V12.4584H14.3748V10.5417H10.5415V8.62502H14.3748V6.70835H8.62484Z" fill="black"/>
</svg>
