<svg width="23" height="23" viewBox="0 0 23 23" fill="none" xmlns="http://www.w3.org/2000/svg">
<path d="M18.2085 6.70835H10.5418V13.4167H2.87516V4.79169H0.958496V19.1667H2.87516V16.2917H20.1252V19.1667H22.0418V10.5417C22.0418 9.52502 21.638 8.55 20.9191 7.83111C20.2002 7.11222 19.2252 6.70835 18.2085 6.70835ZM6.7085 12.4584C7.47099 12.4584 8.20226 12.1555 8.74143 11.6163C9.28059 11.0771 9.5835 10.3459 9.5835 9.58335C9.5835 8.82086 9.28059 8.08959 8.74143 7.55042C8.20226 7.01125 7.47099 6.70835 6.7085 6.70835C5.946 6.70835 5.21473 7.01125 4.67556 7.55042C4.1364 8.08959 3.8335 8.82086 3.8335 9.58335C3.8335 10.3459 4.1364 11.0771 4.67556 11.6163C5.21473 12.1555 5.946 12.4584 6.7085 12.4584Z" fill="black"/>
</svg>
