<svg width="23" height="23" viewBox="0 0 23 23" fill="none" xmlns="http://www.w3.org/2000/svg">
<path d="M11.4998 1.91669C10.2413 1.91669 8.99516 2.16457 7.83245 2.64617C6.66975 3.12778 5.61329 3.83369 4.7234 4.72358C2.92617 6.5208 1.9165 8.95836 1.9165 11.5C1.9165 14.0417 2.92617 16.4792 4.7234 18.2765C5.61329 19.1664 6.66975 19.8723 7.83245 20.3539C8.99516 20.8355 10.2413 21.0834 11.4998 21.0834C14.0415 21.0834 16.4791 20.0737 18.2763 18.2765C20.0735 16.4792 21.0832 14.0417 21.0832 11.5C21.0832 10.2415 20.8353 8.99534 20.3537 7.83264C19.8721 6.66993 19.1662 5.61348 18.2763 4.72358C17.3864 3.83369 16.3299 3.12778 15.1672 2.64617C14.0045 2.16457 12.7583 1.91669 11.4998 1.91669ZM15.5248 15.525L10.5415 12.4584V6.70835H11.979V11.6917L16.2915 14.2792L15.5248 15.525Z" fill="black"/>
</svg>
