<svg width="23" height="23" viewBox="0 0 23 23" fill="none" xmlns="http://www.w3.org/2000/svg">
<path d="M11.4998 1.91669C16.7927 1.91669 21.0832 6.20715 21.0832 11.5C21.0832 16.7929 16.7927 21.0834 11.4998 21.0834C6.20696 21.0834 1.9165 16.7929 1.9165 11.5C1.9165 6.20715 6.20696 1.91669 11.4998 1.91669ZM15.3332 7.66669C15.3332 6.69494 14.0528 6.34035 13.5535 7.1741L11.4998 10.5954L9.44613 7.1741C8.94684 6.34035 7.6665 6.69494 7.6665 7.66669V15.3334C7.6665 15.5875 7.76747 15.8313 7.94719 16.011C8.12692 16.1907 8.37067 16.2917 8.62484 16.2917L8.73696 16.285C8.97008 16.2575 9.18501 16.1455 9.34099 15.97C9.49696 15.7946 9.58314 15.5681 9.58317 15.3334V11.1263L10.6785 12.9509L10.7495 13.0544C10.8458 13.1756 10.9701 13.2716 11.1117 13.3342C11.2533 13.3968 11.4079 13.4242 11.5624 13.4141C11.7169 13.4039 11.8666 13.3564 11.9987 13.2758C12.1308 13.1951 12.2415 13.0837 12.3211 12.9509L13.4165 11.1263V15.3334C13.4165 15.5875 13.5175 15.8313 13.6972 16.011C13.8769 16.1907 14.1207 16.2917 14.3748 16.2917C14.629 16.2917 14.8728 16.1907 15.0525 16.011C15.2322 15.8313 15.3332 15.5875 15.3332 15.3334V7.66669Z" fill="black"/>
</svg>
