<svg width="23" height="23" viewBox="0 0 23 23" fill="none" xmlns="http://www.w3.org/2000/svg">
<path d="M8.14567 5.27085C9.49884 5.72127 10.1083 7.33989 10.3757 9.12623L6.04117 11.6284L6.9995 13.2883L10.5549 11.2365C10.599 12.5341 10.5415 13.7128 10.5415 14.375C10.5415 17.25 9.58317 20.125 5.74984 20.125C1.9165 20.125 1.9165 20.125 1.9165 16.2917C1.9165 9.10419 5.27067 4.31252 8.14567 5.27085ZM21.0841 16.2917V16.7095C21.0793 20.125 20.9404 20.125 17.2508 20.125C13.4175 20.125 12.4591 17.25 12.4591 14.375C12.4591 13.7128 12.4016 12.535 12.4457 11.2374L16.0011 13.2883L16.9595 11.6284L12.6249 9.12719C12.8923 7.3399 13.5018 5.72223 14.855 5.27085C17.73 4.31252 21.0841 9.10419 21.0841 16.2917ZM12.4582 1.91669V10.5417H10.5415V1.91669H12.4582Z" fill="black"/>
</svg>
