<svg width="23" height="23" viewBox="0 0 23 23" fill="none" xmlns="http://www.w3.org/2000/svg">
<path d="M0.821289 11.6315H4.41915C4.57064 11.6297 4.71894 11.5877 4.84885 11.5098C4.97876 11.4318 5.08561 11.3207 5.15843 11.1879L8.11558 5.2736C8.18846 5.12635 8.30465 5.00493 8.44855 4.92563C8.59245 4.84634 8.75716 4.81298 8.92057 4.83003C9.08334 4.84103 9.23868 4.90224 9.3652 5.00522C9.49172 5.1082 9.58319 5.24789 9.627 5.40503L13.2906 17.595C13.3387 17.7604 13.4375 17.9064 13.5731 18.0126C13.7087 18.1187 13.8742 18.1795 14.0463 18.1865C14.2075 18.1811 14.3636 18.1284 14.4951 18.0349C14.6266 17.9414 14.7276 17.8113 14.7856 17.6607L17.0363 12.1572C17.0983 12.0028 17.2048 11.8704 17.3423 11.7767C17.4798 11.6831 17.6421 11.6325 17.8084 11.6315H22.1784" fill="white"/>
<path d="M0.821289 11.6315H4.41915C4.57064 11.6297 4.71894 11.5877 4.84885 11.5098C4.97876 11.4318 5.08561 11.3207 5.15843 11.1879L8.11558 5.2736C8.18846 5.12635 8.30465 5.00493 8.44855 4.92563C8.59245 4.84634 8.75716 4.81298 8.92057 4.83003C9.08334 4.84103 9.23868 4.90224 9.3652 5.00522C9.49172 5.1082 9.58319 5.24789 9.627 5.40503L13.2906 17.595C13.3387 17.7604 13.4375 17.9064 13.5731 18.0126C13.7087 18.1187 13.8742 18.1795 14.0463 18.1865C14.2075 18.1811 14.3636 18.1284 14.4951 18.0349C14.6266 17.9414 14.7276 17.8113 14.7856 17.6607L17.0363 12.1572C17.0983 12.0028 17.2048 11.8704 17.3423 11.7767C17.4798 11.6831 17.6421 11.6325 17.8084 11.6315H22.1784" stroke="black" stroke-width="1.64286" stroke-linecap="round" stroke-linejoin="round"/>
</svg>
