<svg width="23" height="23" viewBox="0 0 23 23" fill="none" xmlns="http://www.w3.org/2000/svg">
<path d="M12.4586 14.6433V5.27081C12.4586 5.01665 12.3576 4.77289 12.1779 4.59317C11.9981 4.41345 11.7544 4.31248 11.5002 4.31248C11.2461 4.31248 11.0023 4.41345 10.8226 4.59317C10.6429 4.77289 10.5419 5.01665 10.5419 5.27081V14.6433C10.2522 14.8106 10.0113 15.0507 9.84321 15.3399C9.67509 15.629 9.58557 15.9572 9.58355 16.2916C9.58355 16.8 9.78549 17.2875 10.1449 17.6469C10.5044 18.0064 10.9919 18.2083 11.5002 18.2083C12.0086 18.2083 12.4961 18.0064 12.8555 17.6469C13.215 17.2875 13.4169 16.8 13.4169 16.2916C13.4149 15.9572 13.3253 15.629 13.1572 15.3399C12.9891 15.0507 12.7482 14.8106 12.4586 14.6433ZM15.8127 12.4583V5.27081C15.8127 4.12707 15.3584 3.03017 14.5496 2.22141C13.7409 1.41266 12.644 0.958313 11.5002 0.958313C10.3565 0.958313 9.25957 1.41266 8.45082 2.22141C7.64207 3.03017 7.18772 4.12707 7.18772 5.27081V12.4583C6.52536 13.2089 6.07043 14.1194 5.86791 15.0997C5.6654 16.08 5.72233 17.0963 6.03308 18.0478C6.34382 18.9994 6.8976 19.8534 7.63965 20.5253C8.3817 21.1972 9.2863 21.6637 10.264 21.8787C10.6701 21.9713 11.084 22.0258 11.5002 22.0416C12.6125 22.0468 13.7024 21.7293 14.6378 21.1275C15.5733 20.5258 16.3141 19.6656 16.7705 18.6513C17.227 17.637 17.3794 16.5121 17.2094 15.4129C17.0394 14.3137 16.5543 13.2873 15.8127 12.4583ZM13.8961 19.2337C13.3913 19.6441 12.7904 19.9193 12.1499 20.0334C11.5095 20.1474 10.8505 20.0966 10.2351 19.8858C9.61972 19.6749 9.06811 19.3108 8.63222 18.8279C8.19633 18.345 7.89051 17.7591 7.74355 17.1254C7.59549 16.4848 7.6147 15.8169 7.79931 15.1858C7.98392 14.5548 8.32774 13.9819 8.79772 13.5221C8.88827 13.4333 8.96031 13.3275 9.00966 13.2107C9.05901 13.0939 9.08469 12.9684 9.08522 12.8416V5.27081C9.08522 4.6354 9.33764 4.02601 9.78694 3.5767C10.2362 3.1274 10.8456 2.87498 11.4811 2.87498C12.1165 2.87498 12.7259 3.1274 13.1752 3.5767C13.6245 4.02601 13.8769 4.6354 13.8769 5.27081V12.88C13.8774 13.0068 13.9031 13.1322 13.9524 13.249C14.0018 13.3658 14.0738 13.4716 14.1644 13.5604C14.5561 13.9388 14.8627 14.3964 15.0637 14.9026C15.2647 15.4088 15.3556 15.952 15.3302 16.4961C15.3048 17.0401 15.1638 17.5725 14.9165 18.0578C14.6692 18.5431 14.3213 18.9701 13.8961 19.3104V19.2337Z" fill="black"/>
</svg>
